<?xml version="1.0" encoding="UTF-8"?>
<svg id="Layer_1" xmlns="http://www.w3.org/2000/svg" version="1.1" viewBox="0 0 1200 289.1">
  <!-- Generator: Adobe Illustrator 29.5.0, SVG Export Plug-In . SVG Version: 2.1.0 Build 137)  -->
  <defs>
    <style>
      .st0 {
        fill: #fbb514;
      }

      .st1 {
        fill: #003049;
      }
    </style>
  </defs>
  <g>
    <g>
      <polygon class="st1" points="454.99 .55 421.97 .55 377.53 54.77 377.53 .55 350.8 .55 350.8 120.75 377.53 120.75 377.53 61.6 423.5 120.75 456.7 120.75 406.36 57.76 454.99 .55"/>
      <path class="st1" d="M533.82,40.31c-4.88-2.67-10.55-4-17.03-4s-11.97,1.34-16.85,4c-2.02,1.1-3.8,2.44-5.45,3.92V.55h-26.05v120.2h26.05v-47.16c0-2.84.62-5.36,1.87-7.58,1.25-2.21,2.95-3.92,5.11-5.11,2.15-1.19,4.65-1.79,7.49-1.79,4.08,0,7.46,1.34,10.13,4,2.67,2.67,4,6.16,4,10.47v47.16h26.05v-52.95c0-6.24-1.34-11.72-4-16.43-2.67-4.71-6.44-8.4-11.32-11.07Z"/>
      <path class="st1" d="M626.43,41.41c-6.24-3.51-13.45-5.28-21.62-5.28s-15.95,1.87-22.64,5.62c-6.7,3.75-12,8.88-15.92,15.41-3.92,6.53-5.87,13.93-5.87,22.22s1.99,15.72,5.96,22.3c3.97,6.58,9.45,11.72,16.43,15.41,6.98,3.69,14.95,5.53,23.92,5.53,6.92,0,13.28-1.19,19.07-3.58,5.79-2.38,10.72-5.96,14.81-10.72l-14.3-14.3c-2.5,2.84-5.39,4.97-8.68,6.38-3.29,1.42-6.98,2.13-11.07,2.13-4.43,0-8.26-.94-11.49-2.81-3.23-1.87-5.73-4.54-7.49-8-.58-1.14-1.03-2.39-1.42-3.69l59.22-.14c.45-2.16.77-4.06.94-5.7.17-1.64.26-3.2.26-4.68,0-8.06-1.79-15.21-5.36-21.45-3.58-6.24-8.49-11.12-14.73-14.64ZM594.34,58.86c3.01-1.87,6.55-2.81,10.64-2.81,3.86,0,7.12.83,9.79,2.47,2.67,1.65,4.68,4.03,6.04,7.15.57,1.3,1,2.78,1.35,4.37l-36.06.1c.35-1.19.75-2.32,1.26-3.37,1.64-3.4,3.97-6.04,6.98-7.92Z"/>
      <polygon class="st1" points="693.82 88.26 677.34 38.01 649.24 38.01 680.82 115.06 662.01 155.65 688.74 155.65 703.38 121.09 738.79 38.01 710.7 38.01 693.82 88.26"/>
      <path class="st1" d="M802.98,44.9c-2.24-2.13-4.8-3.94-7.74-5.36-4.49-2.16-9.51-3.24-15.07-3.24-7.61,0-14.39,1.87-20.34,5.62-5.96,3.74-10.67,8.85-14.13,15.32-3.46,6.47-5.19,13.85-5.19,22.13s1.73,15.66,5.19,22.13c3.46,6.47,8.17,11.58,14.13,15.32,5.96,3.75,12.74,5.62,20.34,5.62,5.56,0,10.61-1.08,15.15-3.24,2.93-1.39,5.46-3.17,7.66-5.25v6.78h25.54V38.01h-25.54v6.89ZM785.44,98.96c-3.52,0-6.7-.85-9.53-2.55-2.84-1.7-5.05-4.03-6.64-6.98-1.59-2.95-2.38-6.3-2.38-10.04s.82-7.26,2.47-10.22c1.64-2.95,3.86-5.25,6.64-6.9,2.78-1.64,5.99-2.47,9.62-2.47s6.84.82,9.62,2.47c2.78,1.65,4.94,3.95,6.47,6.9,1.53,2.95,2.3,6.36,2.3,10.22,0,5.68-1.7,10.36-5.11,14.05-3.4,3.69-7.89,5.53-13.45,5.53Z"/>
      <polygon class="st1" points="909.13 78.53 862.91 2.6 851.67 2.6 851.67 120.75 867.67 120.75 867.67 37.58 903.6 96.57 914.83 96.57 950.59 37.86 950.59 120.75 966.59 120.75 966.59 2.6 955.35 2.6 909.13 78.53"/>
      <path class="st1" d="M999.62,4.13c-2.84,0-5.17.94-6.98,2.81-1.82,1.87-2.72,4.17-2.72,6.9s.91,5.19,2.72,7.07c1.82,1.87,4.14,2.81,6.98,2.81s5.16-.94,6.98-2.81c1.81-1.87,2.72-4.23,2.72-7.07s-.91-5.02-2.72-6.9c-1.82-1.87-4.14-2.81-6.98-2.81Z"/>
      <rect class="st1" x="991.96" y="39.88" width="15.32" height="80.87"/>
      <path class="st1" d="M1087.21,42.78c-4.71-3.07-10.13-4.6-16.26-4.6s-11.64,1.39-16.51,4.17c-3.68,2.1-6.74,4.76-9.19,7.98v-10.45h-15.32v80.87h15.32v-47.16c0-4.09.91-7.72,2.72-10.9,1.81-3.17,4.31-5.67,7.49-7.49,3.18-1.82,6.81-2.72,10.9-2.72,6.13,0,11.12,1.99,14.98,5.96,3.86,3.97,5.79,9.02,5.79,15.15v47.16h15.32v-50.22c0-5.56-1.36-10.81-4.09-15.75-2.72-4.94-6.44-8.94-11.15-12Z"/>
      <path class="st1" d="M1184.51.55v50.56c-2.86-3.78-6.4-6.84-10.73-9.11-4.88-2.55-10.33-3.83-16.34-3.83-7.49,0-14.19,1.87-20.09,5.62-5.9,3.75-10.59,8.8-14.05,15.15-3.46,6.36-5.19,13.51-5.19,21.45s1.73,15.1,5.19,21.45c3.46,6.36,8.14,11.38,14.05,15.07,5.9,3.69,12.6,5.53,20.09,5.53,6.13,0,11.63-1.28,16.51-3.83,4.27-2.24,7.76-5.28,10.55-9.04v11.17h15.49V.55h-15.49ZM1173.36,104.41c-3.8,2.38-8.26,3.57-13.37,3.57s-9.62-1.19-13.53-3.57c-3.92-2.39-6.98-5.65-9.19-9.79-2.21-4.14-3.32-8.94-3.32-14.39s1.11-10.07,3.32-14.21c2.21-4.14,5.25-7.41,9.11-9.79,3.86-2.38,8.34-3.58,13.45-3.58s9.56,1.19,13.37,3.58c3.8,2.38,6.81,5.62,9.02,9.7,2.21,4.09,3.32,8.91,3.32,14.47s-1.08,10.07-3.24,14.21c-2.16,4.15-5.14,7.41-8.94,9.79Z"/>
    </g>
    <g>
      <path class="st1" d="M350.8,280.73v-28.2h16.36v2.31h-13.78v10.61h12.92v2.31h-12.92v10.64h14.06v2.31h-16.63Z"/>
      <path class="st1" d="M373.29,280.73v-21.15h2.38v3.25h.22c.42-1.09,1.13-1.95,2.11-2.58.99-.63,2.17-.94,3.56-.94,1.46,0,2.66.34,3.6,1.02.94.68,1.65,1.62,2.11,2.82h.18c.48-1.17,1.25-2.11,2.33-2.8s2.39-1.04,3.93-1.04c1.97,0,3.52.62,4.65,1.85,1.14,1.24,1.71,3.04,1.71,5.41v14.17h-2.45v-14.17c0-1.67-.43-2.92-1.28-3.76-.85-.84-1.98-1.25-3.37-1.25-1.61,0-2.86.49-3.73,1.49-.87.99-1.31,2.25-1.31,3.77v13.92h-2.51v-14.39c0-1.43-.4-2.59-1.2-3.47-.8-.88-1.92-1.32-3.37-1.32-.97,0-1.85.24-2.62.72-.78.48-1.39,1.14-1.83,1.99-.44.85-.67,1.82-.67,2.92v13.55h-2.45Z"/>
      <path class="st1" d="M406.56,288.66v-29.08h2.38v4.03h.29c.29-.63.7-1.28,1.21-1.95.51-.67,1.2-1.23,2.04-1.69.85-.46,1.92-.69,3.21-.69,1.75,0,3.27.46,4.58,1.37,1.31.91,2.33,2.19,3.06,3.83s1.09,3.54,1.09,5.72-.37,4.1-1.09,5.74-1.75,2.92-3.06,3.84c-1.31.92-2.83,1.38-4.55,1.38-1.28,0-2.34-.23-3.2-.69s-1.55-1.02-2.08-1.7-.93-1.33-1.22-1.98h-.22v11.85h-2.45ZM408.98,270.17c0,1.71.25,3.22.77,4.54.51,1.32,1.24,2.35,2.2,3.1.96.75,2.12,1.12,3.49,1.12s2.59-.39,3.56-1.16c.97-.78,1.71-1.82,2.22-3.15.51-1.32.76-2.8.76-4.45s-.25-3.09-.75-4.39-1.24-2.34-2.21-3.1c-.97-.77-2.17-1.15-3.58-1.15s-2.55.37-3.51,1.11c-.96.74-1.7,1.76-2.2,3.06-.5,1.3-.75,2.79-.75,4.48Z"/>
      <path class="st1" d="M438.03,281.17c-1.83,0-3.44-.46-4.84-1.39s-2.49-2.21-3.28-3.85c-.79-1.64-1.18-3.53-1.18-5.68s.4-4.07,1.18-5.72c.79-1.65,1.88-2.93,3.28-3.85,1.4-.92,3.01-1.38,4.84-1.38s3.44.46,4.83,1.39c1.4.93,2.49,2.21,3.28,3.86.79,1.64,1.19,3.55,1.19,5.71s-.39,4.04-1.18,5.68c-.79,1.64-1.88,2.92-3.28,3.85-1.4.93-3.01,1.39-4.84,1.39ZM438.03,278.92c1.47,0,2.71-.39,3.73-1.18,1.02-.79,1.79-1.84,2.32-3.15.53-1.31.79-2.76.79-4.34s-.26-3.03-.79-4.35c-.53-1.32-1.3-2.38-2.32-3.18-1.02-.8-2.26-1.2-3.73-1.2s-2.7.4-3.72,1.2-1.8,1.86-2.33,3.18c-.53,1.32-.79,2.77-.79,4.35s.26,3.02.79,4.34,1.3,2.36,2.32,3.15c1.02.79,2.26,1.18,3.73,1.18Z"/>
      <path class="st1" d="M457.41,280.73l-6.39-21.15h2.59l5.01,17.44h.18l5-17.44h2.6l4.95,17.4h.19l5.01-17.4h2.59l-6.39,21.15h-2.54l-5.01-17.33h-.26l-5.01,17.33h-2.53Z"/>
      <path class="st1" d="M492.48,281.17c-1.97,0-3.68-.46-5.12-1.38-1.44-.92-2.55-2.2-3.34-3.84-.78-1.64-1.18-3.53-1.18-5.67s.39-4.02,1.18-5.68c.79-1.66,1.87-2.96,3.26-3.9,1.39-.94,3-1.41,4.83-1.41,1.15,0,2.25.21,3.32.63s2.02,1.05,2.87,1.91c.85.86,1.52,1.94,2.02,3.24.49,1.3.74,2.83.74,4.61v1.21h-16.52v-2.16h14.01c0-1.36-.27-2.58-.82-3.67-.55-1.09-1.3-1.95-2.27-2.58-.97-.63-2.09-.95-3.35-.95-1.34,0-2.52.36-3.54,1.07-1.02.72-1.82,1.66-2.39,2.84-.57,1.17-.86,2.46-.87,3.85v1.29c0,1.68.29,3.15.87,4.4.58,1.25,1.41,2.22,2.48,2.91,1.07.69,2.35,1.03,3.81,1.03,1,0,1.88-.16,2.64-.47.76-.31,1.39-.73,1.91-1.26.52-.53.91-1.11,1.18-1.74l2.33.76c-.32.89-.85,1.71-1.58,2.46-.73.75-1.64,1.36-2.72,1.81-1.09.45-2.34.68-3.75.68Z"/>
      <path class="st1" d="M506.44,280.73v-21.15h2.38v3.25h.18c.42-1.06,1.16-1.92,2.21-2.58,1.05-.65,2.24-.98,3.57-.98.2,0,.43,0,.67.01s.45.02.62.03v2.49c-.11-.02-.3-.04-.58-.08-.28-.04-.58-.05-.9-.05-1.1,0-2.08.23-2.94.69-.86.46-1.54,1.1-2.03,1.92-.49.82-.74,1.75-.74,2.8v13.66h-2.45Z"/>
      <path class="st1" d="M521.54,255.95c-.5,0-.94-.17-1.29-.52s-.54-.76-.54-1.25.18-.9.54-1.25c.36-.34.79-.52,1.29-.52s.94.17,1.29.52c.36.35.54.76.54,1.25s-.18.9-.54,1.25c-.36.34-.79.52-1.29.52ZM520.28,280.73v-21.15h2.46v21.15h-2.46Z"/>
      <path class="st1" d="M531.7,267.51v13.22h-2.45v-21.15h2.38v3.32h.22c.49-1.08,1.27-1.95,2.32-2.61,1.05-.66,2.35-.98,3.9-.98,1.42,0,2.67.29,3.75.89,1.08.59,1.92,1.46,2.52,2.61.6,1.15.9,2.56.9,4.23v13.7h-2.45v-13.55c0-1.74-.48-3.11-1.45-4.12-.97-1.01-2.26-1.51-3.89-1.51-1.11,0-2.1.24-2.96.72-.86.48-1.55,1.16-2.05,2.06-.5.89-.75,1.96-.75,3.19Z"/>
      <path class="st1" d="M559.79,289.1c-1.44,0-2.7-.19-3.79-.56-1.08-.37-2-.88-2.74-1.52s-1.32-1.36-1.74-2.16l2.01-1.32c.3.53.71,1.06,1.22,1.57.51.52,1.17.94,2,1.28s1.83.51,3.04.51c1.87,0,3.38-.47,4.54-1.4,1.15-.94,1.73-2.39,1.73-4.36v-4.77h-.22c-.28.64-.69,1.28-1.23,1.92-.53.64-1.23,1.17-2.08,1.59s-1.92.63-3.19.63c-1.69,0-3.19-.42-4.5-1.25-1.31-.84-2.34-2.03-3.08-3.59-.75-1.56-1.12-3.41-1.12-5.57s.37-4.02,1.09-5.64c.73-1.63,1.75-2.89,3.06-3.8,1.31-.91,2.84-1.36,4.58-1.36,1.29,0,2.37.23,3.22.68.85.45,1.54,1.02,2.06,1.69s.93,1.32,1.22,1.96h.25v-4.03h2.4v21.7c0,1.79-.38,3.26-1.14,4.42-.76,1.16-1.8,2.01-3.11,2.57-1.31.56-2.8.83-4.47.83ZM559.62,278.26c1.36,0,2.52-.33,3.48-.98.97-.66,1.7-1.6,2.22-2.83.51-1.23.77-2.69.77-4.39s-.25-3.12-.76-4.4c-.5-1.28-1.24-2.29-2.2-3.03-.96-.74-2.13-1.11-3.52-1.11s-2.61.38-3.58,1.14c-.97.76-1.71,1.79-2.2,3.08-.49,1.29-.74,2.73-.74,4.32s.25,3.04.76,4.27c.5,1.23,1.24,2.2,2.22,2.89.97.69,2.16,1.04,3.55,1.04Z"/>
      <path class="st1" d="M589,252.53v28.2h-2.57v-28.2h2.57Z"/>
      <path class="st1" d="M598.43,267.51v13.22h-2.45v-21.15h2.38v3.32h.22c.49-1.08,1.27-1.95,2.32-2.61,1.05-.66,2.35-.98,3.9-.98,1.42,0,2.67.29,3.75.89,1.08.59,1.92,1.46,2.52,2.61.6,1.15.9,2.56.9,4.23v13.7h-2.45v-13.55c0-1.74-.48-3.11-1.45-4.12-.97-1.01-2.26-1.51-3.89-1.51-1.11,0-2.1.24-2.96.72-.86.48-1.55,1.16-2.05,2.06-.5.89-.75,1.96-.75,3.19Z"/>
      <path class="st1" d="M626.78,259.58v2.13h-10.09v-2.13h10.09ZM619.84,254.51h2.46v20.69c0,.88.15,1.57.45,2.07.3.5.7.85,1.18,1.06.49.21,1.01.31,1.56.31.32,0,.6-.02.83-.06.23-.04.43-.08.61-.13l.52,2.22c-.24.09-.53.18-.88.25-.35.08-.78.12-1.29.12-.9,0-1.76-.2-2.59-.59-.83-.4-1.51-.98-2.05-1.76-.53-.78-.8-1.75-.8-2.9v-21.27Z"/>
      <path class="st1" d="M640.89,281.17c-1.97,0-3.68-.46-5.12-1.38-1.44-.92-2.55-2.2-3.34-3.84-.78-1.64-1.18-3.53-1.18-5.67s.39-4.02,1.18-5.68c.79-1.66,1.87-2.96,3.26-3.9,1.39-.94,3-1.41,4.83-1.41,1.15,0,2.25.21,3.32.63s2.02,1.05,2.87,1.91c.85.86,1.52,1.94,2.02,3.24.49,1.3.74,2.83.74,4.61v1.21h-16.52v-2.16h14.01c0-1.36-.27-2.58-.82-3.67-.55-1.09-1.3-1.95-2.27-2.58-.97-.63-2.09-.95-3.35-.95-1.34,0-2.52.36-3.54,1.07-1.02.72-1.82,1.66-2.39,2.84-.57,1.17-.86,2.46-.87,3.85v1.29c0,1.68.29,3.15.87,4.4.58,1.25,1.41,2.22,2.48,2.91,1.07.69,2.35,1.03,3.81,1.03,1,0,1.88-.16,2.64-.47.76-.31,1.39-.73,1.91-1.26s.91-1.11,1.18-1.74l2.33.76c-.32.89-.85,1.71-1.58,2.46-.73.75-1.64,1.36-2.72,1.81-1.09.45-2.34.68-3.75.68Z"/>
      <path class="st1" d="M657.3,252.53v28.2h-2.45v-28.2h2.45Z"/>
      <path class="st1" d="M666.22,252.53v28.2h-2.45v-28.2h2.45Z"/>
      <path class="st1" d="M673.97,255.95c-.5,0-.94-.17-1.29-.52s-.54-.76-.54-1.25.18-.9.54-1.25c.36-.34.79-.52,1.29-.52s.94.17,1.29.52c.36.35.54.76.54,1.25s-.18.9-.54,1.25c-.36.34-.79.52-1.29.52ZM672.72,280.73v-21.15h2.46v21.15h-2.46Z"/>
      <path class="st1" d="M689.75,289.1c-1.44,0-2.7-.19-3.79-.56-1.08-.37-2-.88-2.74-1.52s-1.32-1.36-1.74-2.16l2.01-1.32c.3.53.71,1.06,1.22,1.57.51.52,1.17.94,2,1.28s1.83.51,3.04.51c1.87,0,3.38-.47,4.54-1.4,1.15-.94,1.73-2.39,1.73-4.36v-4.77h-.22c-.28.64-.69,1.28-1.23,1.92-.53.64-1.23,1.17-2.08,1.59s-1.92.63-3.19.63c-1.69,0-3.19-.42-4.5-1.25-1.31-.84-2.34-2.03-3.08-3.59-.75-1.56-1.12-3.41-1.12-5.57s.37-4.02,1.09-5.64c.73-1.63,1.75-2.89,3.06-3.8,1.31-.91,2.84-1.36,4.58-1.36,1.29,0,2.37.23,3.22.68.85.45,1.54,1.02,2.06,1.69.52.67.93,1.32,1.22,1.96h.25v-4.03h2.4v21.7c0,1.79-.38,3.26-1.14,4.42-.76,1.16-1.8,2.01-3.11,2.57-1.31.56-2.8.83-4.47.83ZM689.58,278.26c1.36,0,2.52-.33,3.48-.98.97-.66,1.7-1.6,2.22-2.83.51-1.23.77-2.69.77-4.39s-.25-3.12-.76-4.4c-.5-1.28-1.24-2.29-2.2-3.03-.96-.74-2.13-1.11-3.52-1.11s-2.61.38-3.58,1.14c-.97.76-1.71,1.79-2.2,3.08-.49,1.29-.74,2.73-.74,4.32s.25,3.04.76,4.27,1.24,2.2,2.22,2.89c.97.69,2.16,1.04,3.55,1.04Z"/>
      <path class="st1" d="M713.52,281.17c-1.97,0-3.68-.46-5.12-1.38-1.44-.92-2.55-2.2-3.34-3.84-.78-1.64-1.18-3.53-1.18-5.67s.39-4.02,1.18-5.68c.79-1.66,1.87-2.96,3.26-3.9,1.39-.94,3-1.41,4.83-1.41,1.15,0,2.25.21,3.32.63s2.02,1.05,2.87,1.91c.85.86,1.52,1.94,2.02,3.24.49,1.3.74,2.83.74,4.61v1.21h-16.52v-2.16h14.01c0-1.36-.27-2.58-.82-3.67-.55-1.09-1.3-1.95-2.27-2.58-.97-.63-2.09-.95-3.35-.95-1.34,0-2.52.36-3.54,1.07-1.02.72-1.82,1.66-2.39,2.84-.57,1.17-.86,2.46-.87,3.85v1.29c0,1.68.29,3.15.87,4.4.58,1.25,1.41,2.22,2.48,2.91,1.07.69,2.35,1.03,3.81,1.03,1,0,1.88-.16,2.64-.47.76-.31,1.39-.73,1.91-1.26.52-.53.91-1.11,1.18-1.74l2.33.76c-.32.89-.85,1.71-1.58,2.46-.73.75-1.64,1.36-2.72,1.81-1.09.45-2.34.68-3.75.68Z"/>
      <path class="st1" d="M729.93,267.51v13.22h-2.45v-21.15h2.38v3.32h.22c.49-1.08,1.27-1.95,2.32-2.61,1.05-.66,2.35-.98,3.9-.98,1.42,0,2.67.29,3.75.89,1.08.59,1.92,1.46,2.52,2.61.6,1.15.9,2.56.9,4.23v13.7h-2.45v-13.55c0-1.74-.48-3.11-1.45-4.12-.97-1.01-2.26-1.51-3.89-1.51-1.11,0-2.1.24-2.96.72-.86.48-1.55,1.16-2.05,2.06-.5.89-.75,1.96-.75,3.19Z"/>
      <path class="st1" d="M758.21,281.17c-1.89,0-3.53-.47-4.93-1.42s-2.49-2.24-3.26-3.88c-.77-1.64-1.16-3.51-1.16-5.62s.39-4.01,1.18-5.66c.79-1.65,1.87-2.95,3.27-3.89,1.39-.94,3.01-1.41,4.86-1.41,1.41,0,2.69.27,3.84.82,1.15.55,2.09,1.31,2.84,2.3.75.99,1.22,2.14,1.41,3.45h-2.48c-.26-1.19-.87-2.21-1.85-3.06-.98-.85-2.22-1.27-3.72-1.27-1.35,0-2.54.37-3.58,1.09-1.04.73-1.85,1.74-2.43,3.04-.58,1.3-.87,2.8-.87,4.51s.28,3.23.85,4.55,1.37,2.35,2.4,3.09c1.03.74,2.24,1.11,3.63,1.11.94,0,1.79-.18,2.57-.53s1.43-.86,1.96-1.51c.53-.65.88-1.43,1.07-2.32h2.48c-.18,1.27-.63,2.41-1.36,3.41-.72,1-1.65,1.78-2.8,2.35-1.14.57-2.45.85-3.92.85Z"/>
      <path class="st1" d="M780.07,281.17c-1.97,0-3.68-.46-5.12-1.38-1.44-.92-2.55-2.2-3.34-3.84-.78-1.64-1.18-3.53-1.18-5.67s.39-4.02,1.18-5.68c.79-1.66,1.87-2.96,3.26-3.9,1.39-.94,3-1.41,4.83-1.41,1.15,0,2.25.21,3.32.63s2.02,1.05,2.87,1.91,1.52,1.94,2.02,3.24c.49,1.3.74,2.83.74,4.61v1.21h-16.52v-2.16h14.01c0-1.36-.27-2.58-.82-3.67-.55-1.09-1.3-1.95-2.27-2.58-.97-.63-2.09-.95-3.35-.95-1.34,0-2.52.36-3.54,1.07-1.02.72-1.82,1.66-2.39,2.84-.57,1.17-.86,2.46-.87,3.85v1.29c0,1.68.29,3.15.87,4.4.58,1.25,1.41,2.22,2.48,2.91,1.07.69,2.35,1.03,3.81,1.03,1,0,1.88-.16,2.64-.47.76-.31,1.39-.73,1.91-1.26.52-.53.91-1.11,1.18-1.74l2.33.76c-.32.89-.85,1.71-1.58,2.46-.73.75-1.64,1.36-2.72,1.81-1.09.45-2.34.68-3.75.68Z"/>
      <path class="st1" d="M795.99,280.93c-.54,0-1.01-.19-1.4-.58-.39-.39-.59-.86-.59-1.4s.2-1.01.59-1.4.85-.59,1.4-.59,1.01.2,1.4.59.59.86.59,1.4c0,.36-.09.69-.27.99-.18.3-.42.55-.72.72-.3.18-.63.27-1,.27Z"/>
      <path class="st1" d="M815.84,280.73v-28.2h16.36v2.31h-13.78v10.61h12.92v2.31h-12.92v10.64h14.06v2.31h-16.63Z"/>
      <path class="st1" d="M840.79,252.53v28.2h-2.45v-28.2h2.45Z"/>
      <path class="st1" d="M855.81,281.17c-1.97,0-3.68-.46-5.12-1.38-1.44-.92-2.55-2.2-3.34-3.84-.78-1.64-1.18-3.53-1.18-5.67s.39-4.02,1.18-5.68c.79-1.66,1.87-2.96,3.26-3.9,1.39-.94,3-1.41,4.83-1.41,1.15,0,2.25.21,3.32.63s2.02,1.05,2.87,1.91c.85.86,1.52,1.94,2.02,3.24.49,1.3.74,2.83.74,4.61v1.21h-16.52v-2.16h14.01c0-1.36-.27-2.58-.82-3.67-.55-1.09-1.3-1.95-2.27-2.58-.97-.63-2.09-.95-3.35-.95-1.34,0-2.52.36-3.54,1.07-1.02.72-1.82,1.66-2.39,2.84-.57,1.17-.86,2.46-.87,3.85v1.29c0,1.68.29,3.15.87,4.4.58,1.25,1.41,2.22,2.48,2.91,1.07.69,2.35,1.03,3.81,1.03,1,0,1.88-.16,2.64-.47.76-.31,1.39-.73,1.91-1.26.52-.53.91-1.11,1.18-1.74l2.33.76c-.32.89-.85,1.71-1.58,2.46-.73.75-1.64,1.36-2.72,1.81-1.09.45-2.34.68-3.75.68Z"/>
      <path class="st1" d="M886.14,259.58l-7.72,21.15h-2.62l-7.72-21.15h2.66l6.28,17.91h.19l6.28-17.91h2.66Z"/>
      <path class="st1" d="M896.82,281.21c-1.28,0-2.44-.25-3.5-.75-1.05-.5-1.89-1.23-2.52-2.18-.62-.95-.94-2.1-.94-3.46,0-1.05.2-1.93.59-2.64.39-.72.95-1.3,1.68-1.76.73-.46,1.58-.82,2.58-1.09.99-.27,2.08-.47,3.28-.62,1.18-.15,2.19-.28,3.01-.39.82-.11,1.45-.28,1.88-.52.43-.24.65-.62.65-1.16v-.49c0-1.44-.43-2.58-1.29-3.41s-2.09-1.25-3.7-1.25-2.77.34-3.72,1.01-1.63,1.46-2.02,2.37l-2.32-.84c.48-1.16,1.14-2.08,1.98-2.77s1.79-1.19,2.84-1.5,2.11-.46,3.18-.46c.81,0,1.65.11,2.52.32.88.21,1.69.58,2.44,1.09.75.52,1.36,1.24,1.83,2.16.47.92.7,2.09.7,3.5v14.36h-2.45v-3.34h-.15c-.29.62-.73,1.23-1.31,1.82-.58.59-1.3,1.07-2.18,1.45-.87.38-1.9.57-3.07.57ZM897.15,278.96c1.3,0,2.43-.29,3.39-.87.95-.58,1.69-1.35,2.21-2.3.52-.96.78-2.02.78-3.18v-3.06c-.18.18-.49.33-.92.47-.43.14-.92.26-1.47.37s-1.11.19-1.66.27c-.55.07-1.05.14-1.49.19-1.19.15-2.21.38-3.06.69-.84.31-1.49.74-1.94,1.29-.45.55-.67,1.25-.67,2.1,0,1.28.46,2.28,1.38,2.98.92.7,2.07,1.05,3.45,1.05Z"/>
      <path class="st1" d="M920.82,259.58v2.13h-10.09v-2.13h10.09ZM913.88,254.51h2.46v20.69c0,.88.15,1.57.45,2.07.3.5.7.85,1.18,1.06.49.21,1.01.31,1.56.31.32,0,.6-.02.83-.06.23-.04.43-.08.61-.13l.52,2.22c-.24.09-.53.18-.88.25-.35.08-.78.12-1.29.12-.9,0-1.76-.2-2.59-.59-.83-.4-1.51-.98-2.05-1.76-.53-.78-.8-1.75-.8-2.9v-21.27Z"/>
      <path class="st1" d="M927.66,255.95c-.5,0-.94-.17-1.29-.52s-.54-.76-.54-1.25.18-.9.54-1.25c.36-.34.79-.52,1.29-.52s.94.17,1.29.52c.36.35.54.76.54,1.25s-.18.9-.54,1.25c-.36.34-.79.52-1.29.52ZM926.4,280.73v-21.15h2.46v21.15h-2.46Z"/>
      <path class="st1" d="M937.82,267.51v13.22h-2.45v-21.15h2.38v3.32h.22c.49-1.08,1.27-1.95,2.32-2.61,1.05-.66,2.35-.98,3.9-.98,1.42,0,2.67.29,3.75.89s1.92,1.46,2.52,2.61c.6,1.15.9,2.56.9,4.23v13.7h-2.45v-13.55c0-1.74-.48-3.11-1.45-4.12-.97-1.01-2.26-1.51-3.89-1.51-1.11,0-2.1.24-2.96.72-.86.48-1.55,1.16-2.05,2.06-.5.89-.75,1.96-.75,3.19Z"/>
      <path class="st1" d="M965.9,289.1c-1.44,0-2.7-.19-3.79-.56-1.08-.37-2-.88-2.74-1.52-.74-.64-1.32-1.36-1.74-2.16l2.01-1.32c.3.53.71,1.06,1.22,1.57.51.52,1.17.94,2,1.28s1.83.51,3.04.51c1.87,0,3.38-.47,4.54-1.4,1.15-.94,1.73-2.39,1.73-4.36v-4.77h-.22c-.28.64-.69,1.28-1.23,1.92-.53.64-1.23,1.17-2.08,1.59-.86.42-1.92.63-3.19.63-1.69,0-3.19-.42-4.5-1.25-1.31-.84-2.34-2.03-3.08-3.59-.75-1.56-1.12-3.41-1.12-5.57s.37-4.02,1.09-5.64c.73-1.63,1.75-2.89,3.06-3.8,1.31-.91,2.84-1.36,4.58-1.36,1.29,0,2.37.23,3.22.68.85.45,1.54,1.02,2.06,1.69.52.67.93,1.32,1.22,1.96h.25v-4.03h2.4v21.7c0,1.79-.38,3.26-1.14,4.42-.76,1.16-1.8,2.01-3.11,2.57-1.31.56-2.8.83-4.47.83ZM965.74,278.26c1.36,0,2.52-.33,3.48-.98.97-.66,1.7-1.6,2.22-2.83.51-1.23.77-2.69.77-4.39s-.25-3.12-.76-4.4c-.5-1.28-1.24-2.29-2.2-3.03-.96-.74-2.13-1.11-3.52-1.11s-2.61.38-3.58,1.14c-.97.76-1.71,1.79-2.2,3.08-.49,1.29-.74,2.73-.74,4.32s.25,3.04.76,4.27c.5,1.23,1.24,2.2,2.22,2.89.97.69,2.16,1.04,3.55,1.04Z"/>
      <path class="st1" d="M992.54,280.73v-28.2h16.36v2.31h-13.78v10.61h12.92v2.31h-12.92v10.64h14.06v2.31h-16.63Z"/>
      <path class="st1" d="M1017.49,267.51v13.22h-2.45v-21.15h2.38v3.32h.22c.49-1.08,1.27-1.95,2.32-2.61,1.05-.66,2.35-.98,3.9-.98,1.42,0,2.67.29,3.75.89s1.92,1.46,2.52,2.61c.6,1.15.9,2.56.9,4.23v13.7h-2.45v-13.55c0-1.74-.48-3.11-1.45-4.12-.97-1.01-2.26-1.51-3.89-1.51-1.11,0-2.1.24-2.96.72-.86.48-1.55,1.16-2.05,2.06-.5.89-.75,1.96-.75,3.19Z"/>
      <path class="st1" d="M1045.84,259.58v2.13h-10.09v-2.13h10.09ZM1038.9,254.51h2.46v20.69c0,.88.15,1.57.45,2.07.3.5.7.85,1.18,1.06.49.21,1.01.31,1.56.31.32,0,.6-.02.83-.06.23-.04.43-.08.61-.13l.52,2.22c-.24.09-.53.18-.88.25-.35.08-.78.12-1.29.12-.9,0-1.76-.2-2.59-.59-.83-.4-1.51-.98-2.05-1.76-.53-.78-.8-1.75-.8-2.9v-21.27Z"/>
      <path class="st1" d="M1059.95,281.17c-1.97,0-3.68-.46-5.12-1.38-1.44-.92-2.55-2.2-3.34-3.84-.78-1.64-1.18-3.53-1.18-5.67s.39-4.02,1.18-5.68c.79-1.66,1.87-2.96,3.26-3.9,1.39-.94,3-1.41,4.83-1.41,1.15,0,2.25.21,3.32.63s2.02,1.05,2.87,1.91c.85.86,1.52,1.94,2.02,3.24.49,1.3.74,2.83.74,4.61v1.21h-16.52v-2.16h14.01c0-1.36-.27-2.58-.82-3.67-.55-1.09-1.3-1.95-2.27-2.58-.97-.63-2.09-.95-3.35-.95-1.34,0-2.52.36-3.54,1.07-1.02.72-1.82,1.66-2.39,2.84-.57,1.17-.86,2.46-.87,3.85v1.29c0,1.68.29,3.15.87,4.4.58,1.25,1.41,2.22,2.48,2.91,1.07.69,2.35,1.03,3.81,1.03,1,0,1.88-.16,2.64-.47.76-.31,1.39-.73,1.91-1.26s.91-1.11,1.18-1.74l2.33.76c-.32.89-.85,1.71-1.58,2.46-.73.75-1.64,1.36-2.72,1.81-1.09.45-2.34.68-3.75.68Z"/>
      <path class="st1" d="M1073.91,280.73v-21.15h2.38v3.25h.18c.42-1.06,1.16-1.92,2.21-2.58,1.05-.65,2.24-.98,3.57-.98.2,0,.43,0,.67.01s.45.02.62.03v2.49c-.11-.02-.3-.04-.58-.08-.28-.04-.58-.05-.9-.05-1.1,0-2.08.23-2.94.69-.86.46-1.54,1.1-2.03,1.92-.49.82-.74,1.75-.74,2.8v13.66h-2.45Z"/>
      <path class="st1" d="M1087.73,288.66v-29.08h2.38v4.03h.29c.29-.63.7-1.28,1.21-1.95.51-.67,1.2-1.23,2.04-1.69.85-.46,1.92-.69,3.21-.69,1.75,0,3.27.46,4.58,1.37,1.31.91,2.33,2.19,3.06,3.83.73,1.64,1.09,3.54,1.09,5.72s-.37,4.1-1.09,5.74c-.73,1.64-1.75,2.92-3.06,3.84-1.31.92-2.83,1.38-4.55,1.38-1.28,0-2.34-.23-3.2-.69s-1.55-1.02-2.08-1.7-.93-1.33-1.22-1.98h-.22v11.85h-2.45ZM1090.15,270.17c0,1.71.25,3.22.77,4.54.51,1.32,1.24,2.35,2.2,3.1.96.75,2.12,1.12,3.49,1.12s2.59-.39,3.56-1.16c.97-.78,1.71-1.82,2.22-3.15.51-1.32.76-2.8.76-4.45s-.25-3.09-.75-4.39c-.5-1.3-1.24-2.34-2.21-3.1-.97-.77-2.17-1.15-3.58-1.15s-2.55.37-3.51,1.11c-.96.74-1.7,1.76-2.2,3.06-.5,1.3-.75,2.79-.75,4.48Z"/>
      <path class="st1" d="M1110.98,280.73v-21.15h2.38v3.25h.18c.42-1.06,1.16-1.92,2.21-2.58,1.05-.65,2.24-.98,3.57-.98.2,0,.43,0,.67.01s.45.02.62.03v2.49c-.11-.02-.3-.04-.58-.08-.28-.04-.58-.05-.9-.05-1.1,0-2.08.23-2.94.69-.86.46-1.54,1.1-2.03,1.92-.49.82-.74,1.75-.74,2.8v13.66h-2.45Z"/>
      <path class="st1" d="M1126.09,255.95c-.5,0-.94-.17-1.29-.52s-.54-.76-.54-1.25.18-.9.54-1.25c.36-.34.79-.52,1.29-.52s.94.17,1.29.52c.36.35.54.76.54,1.25s-.18.9-.54,1.25c-.36.34-.79.52-1.29.52ZM1124.83,280.73v-21.15h2.46v21.15h-2.46Z"/>
      <path class="st1" d="M1148,264.22l-2.24.63c-.22-.63-.53-1.21-.94-1.72-.4-.51-.93-.92-1.58-1.22-.65-.3-1.45-.45-2.4-.45-1.43,0-2.61.34-3.52,1.02-.92.68-1.38,1.56-1.38,2.63,0,.91.32,1.65.94,2.21s1.6,1.01,2.91,1.34l3.2.78c1.77.43,3.1,1.11,3.99,2.05.88.94,1.33,2.11,1.33,3.52,0,1.19-.33,2.25-.99,3.18-.66.93-1.58,1.65-2.76,2.18s-2.55.79-4.09.79c-2.07,0-3.77-.46-5.11-1.4-1.34-.93-2.2-2.28-2.58-4.04l2.36-.58c.3,1.26.9,2.21,1.78,2.85.89.64,2.05.97,3.5.97,1.62,0,2.92-.37,3.9-1.09.97-.73,1.46-1.65,1.46-2.75,0-.85-.28-1.57-.85-2.16-.57-.58-1.43-1.01-2.59-1.29l-3.46-.83c-1.84-.44-3.2-1.14-4.08-2.09-.88-.95-1.32-2.14-1.32-3.55,0-1.17.32-2.19.95-3.08.63-.88,1.5-1.58,2.62-2.08s2.38-.76,3.8-.76c1.94,0,3.49.44,4.65,1.31,1.16.88,2,2.08,2.51,3.61Z"/>
      <path class="st1" d="M1162.22,281.17c-1.97,0-3.68-.46-5.12-1.38-1.44-.92-2.55-2.2-3.34-3.84-.78-1.64-1.18-3.53-1.18-5.67s.39-4.02,1.18-5.68c.79-1.66,1.87-2.96,3.26-3.9,1.39-.94,3-1.41,4.83-1.41,1.15,0,2.25.21,3.32.63,1.06.42,2.02,1.05,2.87,1.91.85.86,1.52,1.94,2.02,3.24.49,1.3.74,2.83.74,4.61v1.21h-16.52v-2.16h14.01c0-1.36-.27-2.58-.82-3.67-.55-1.09-1.3-1.95-2.27-2.58-.97-.63-2.09-.95-3.35-.95-1.34,0-2.52.36-3.54,1.07-1.02.72-1.82,1.66-2.39,2.84-.57,1.17-.86,2.46-.87,3.85v1.29c0,1.68.29,3.15.87,4.4.58,1.25,1.41,2.22,2.48,2.91,1.07.69,2.35,1.03,3.81,1.03,1,0,1.88-.16,2.64-.47.76-.31,1.39-.73,1.91-1.26.52-.53.91-1.11,1.18-1.74l2.33.76c-.32.89-.85,1.71-1.58,2.46-.73.75-1.64,1.36-2.72,1.81-1.09.45-2.34.68-3.75.68Z"/>
      <path class="st1" d="M1190.39,264.22l-2.24.63c-.22-.63-.53-1.21-.94-1.72-.4-.51-.93-.92-1.58-1.22-.65-.3-1.45-.45-2.4-.45-1.43,0-2.61.34-3.52,1.02-.92.68-1.38,1.56-1.38,2.63,0,.91.32,1.65.94,2.21s1.6,1.01,2.91,1.34l3.2.78c1.77.43,3.1,1.11,3.99,2.05.88.94,1.33,2.11,1.33,3.52,0,1.19-.33,2.25-.99,3.18s-1.58,1.65-2.76,2.18-2.55.79-4.09.79c-2.07,0-3.77-.46-5.11-1.4-1.34-.93-2.2-2.28-2.58-4.04l2.36-.58c.3,1.26.9,2.21,1.78,2.85.89.64,2.05.97,3.5.97,1.62,0,2.92-.37,3.9-1.09.97-.73,1.46-1.65,1.46-2.75,0-.85-.28-1.57-.85-2.16-.57-.58-1.43-1.01-2.59-1.29l-3.46-.83c-1.84-.44-3.2-1.14-4.08-2.09-.88-.95-1.32-2.14-1.32-3.55,0-1.17.32-2.19.95-3.08.63-.88,1.5-1.58,2.62-2.08,1.11-.5,2.38-.76,3.8-.76,1.94,0,3.49.44,4.65,1.31,1.16.88,2,2.08,2.51,3.61Z"/>
      <path class="st1" d="M1198.02,280.93c-.54,0-1.01-.19-1.4-.58-.39-.39-.59-.86-.59-1.4s.2-1.01.59-1.4c.39-.39.85-.59,1.4-.59s1.01.2,1.4.59.59.86.59,1.4c0,.36-.09.69-.27.99-.18.3-.42.55-.72.72-.3.18-.63.27-1,.27Z"/>
    </g>
    <g>
      <path class="st1" d="M350.8,215.11l19.84-48.4h3.87l19.63,48.4h-5.56l-17.1-42.78h2.04l-17.24,42.78h-5.49ZM359.88,202.51v-4.57h25.33v4.57h-25.33Z"/>
      <path class="st1" d="M419.96,215.11v-48.4h5.14v48.4h-5.14Z"/>
      <path class="st1" d="M483.07,171.41v-4.71h39.26v4.71h-39.26ZM500.1,215.11v-47.07h5.21v47.07h-5.21Z"/>
      <path class="st1" d="M548.71,215.11v-48.4h5.14v48.4h-5.14ZM552.09,171.41v-4.71h28.07v4.71h-28.07ZM552.09,192.59v-4.57h26.24v4.57h-26.24ZM552.09,215.11v-4.71h28.49v4.71h-28.49Z"/>
      <path class="st1" d="M628.57,215.81c-3.47,0-6.7-.63-9.68-1.9s-5.57-3.05-7.77-5.35c-2.2-2.3-3.9-4.96-5.1-7.99-1.2-3.03-1.79-6.27-1.79-9.75s.6-6.72,1.79-9.74c1.2-3.03,2.89-5.66,5.07-7.92,2.18-2.25,4.75-4.01,7.7-5.28,2.96-1.27,6.14-1.9,9.57-1.9,3.7,0,7.02.66,9.95,1.97s5.5,3.12,7.7,5.42l-3.52,3.52c-1.69-1.88-3.73-3.34-6.12-4.4-2.39-1.06-5.07-1.58-8.02-1.58-2.72,0-5.22.49-7.49,1.48-2.28.99-4.27,2.38-5.98,4.19-1.71,1.81-3.03,3.92-3.94,6.33-.92,2.42-1.37,5.06-1.37,7.91s.47,5.51,1.41,7.95c.94,2.44,2.25,4.56,3.94,6.37,1.69,1.81,3.68,3.2,5.98,4.19,2.3.99,4.81,1.48,7.53,1.48,3.1,0,5.85-.54,8.27-1.62,2.42-1.08,4.47-2.56,6.16-4.43l3.52,3.59c-2.16,2.3-4.74,4.12-7.74,5.45-3,1.34-6.36,2.01-10.06,2.01Z"/>
      <path class="st1" d="M672.96,215.11v-48.4h5.14v48.4h-5.14ZM676.34,192.45v-4.71h29.76v4.71h-29.76ZM704.69,215.11v-48.4h5.14v48.4h-5.14Z"/>
      <path class="st1" d="M739.8,215.11v-48.4h3.66l1.48,6.12v42.28h-5.14ZM773.29,215.11l-30.61-41.51.77-6.89,30.53,41.51-.7,6.9ZM773.29,215.11l-1.55-5.84v-42.57h5.21v48.4h-3.66Z"/>
      <path class="st1" d="M828.66,215.81c-3.42,0-6.6-.65-9.53-1.94-2.93-1.29-5.5-3.07-7.7-5.35-2.21-2.28-3.93-4.93-5.17-7.95-1.24-3.03-1.86-6.27-1.86-9.75s.61-6.78,1.83-9.78c1.22-3,2.93-5.63,5.14-7.88,2.2-2.25,4.76-4.01,7.67-5.28,2.91-1.27,6.07-1.9,9.5-1.9s6.6.63,9.53,1.9c2.93,1.27,5.5,3.03,7.7,5.28,2.2,2.25,3.92,4.89,5.14,7.92,1.22,3.03,1.83,6.3,1.83,9.81s-.61,6.72-1.83,9.74-2.92,5.66-5.1,7.92c-2.18,2.25-4.72,4.02-7.63,5.31-2.91,1.29-6.08,1.94-9.5,1.94ZM828.52,210.81c3.66,0,6.9-.87,9.74-2.6,2.84-1.73,5.07-4.1,6.68-7.11,1.62-3,2.43-6.43,2.43-10.27,0-2.86-.47-5.5-1.41-7.91-.94-2.42-2.25-4.53-3.94-6.33-1.69-1.81-3.67-3.2-5.94-4.19-2.28-.99-4.8-1.48-7.56-1.48-3.61,0-6.84.86-9.68,2.57-2.84,1.71-5.07,4.07-6.68,7.07-1.62,3-2.43,6.43-2.43,10.27,0,2.86.47,5.51,1.41,7.95.94,2.44,2.25,4.56,3.94,6.37,1.69,1.81,3.68,3.2,5.98,4.19,2.3.99,4.78,1.48,7.46,1.48Z"/>
      <path class="st1" d="M880.3,215.11v-48.4h5.14v48.4h-5.14ZM883.68,215.11v-4.71h26.67v4.71h-26.67Z"/>
      <path class="st1" d="M954.03,215.81c-3.42,0-6.6-.65-9.53-1.94s-5.5-3.07-7.7-5.35c-2.21-2.28-3.93-4.93-5.17-7.95-1.24-3.03-1.86-6.27-1.86-9.75s.61-6.78,1.83-9.78c1.22-3,2.93-5.63,5.14-7.88,2.2-2.25,4.76-4.01,7.67-5.28,2.91-1.27,6.07-1.9,9.5-1.9s6.6.63,9.53,1.9c2.93,1.27,5.5,3.03,7.7,5.28s3.92,4.89,5.14,7.92c1.22,3.03,1.83,6.3,1.83,9.81s-.61,6.72-1.83,9.74c-1.22,3.03-2.92,5.66-5.1,7.92-2.18,2.25-4.72,4.02-7.63,5.31-2.91,1.29-6.08,1.94-9.5,1.94ZM953.89,210.81c3.66,0,6.9-.87,9.74-2.6,2.84-1.73,5.07-4.1,6.68-7.11,1.62-3,2.43-6.43,2.43-10.27,0-2.86-.47-5.5-1.41-7.91-.94-2.42-2.25-4.53-3.94-6.33-1.69-1.81-3.67-3.2-5.94-4.19-2.28-.99-4.8-1.48-7.56-1.48-3.61,0-6.84.86-9.68,2.57-2.84,1.71-5.07,4.07-6.68,7.07-1.62,3-2.43,6.43-2.43,10.27,0,2.86.47,5.51,1.41,7.95.94,2.44,2.25,4.56,3.94,6.37,1.69,1.81,3.68,3.2,5.98,4.19,2.3.99,4.78,1.48,7.46,1.48Z"/>
      <path class="st1" d="M1027.84,215.74c-3.42,0-6.61-.63-9.57-1.9-2.95-1.27-5.53-3.03-7.74-5.28-2.21-2.25-3.92-4.89-5.14-7.92-1.22-3.03-1.83-6.3-1.83-9.81s.62-6.78,1.86-9.78c1.24-3,2.97-5.64,5.17-7.92,2.2-2.27,4.81-4.05,7.81-5.31,3-1.27,6.26-1.9,9.78-1.9,3.89,0,7.47.78,10.73,2.32,3.26,1.55,5.95,3.73,8.06,6.54l-3.59,3.59c-1.69-2.39-3.85-4.23-6.47-5.52-2.63-1.29-5.54-1.94-8.72-1.94-3.8,0-7.15.86-10.06,2.57-2.91,1.71-5.17,4.07-6.79,7.07-1.62,3-2.43,6.45-2.43,10.34s.81,7.27,2.43,10.27c1.62,3,3.85,5.36,6.68,7.07,2.84,1.71,6.06,2.57,9.68,2.57s6.74-.73,9.39-2.18c2.65-1.45,4.69-3.56,6.12-6.33,1.43-2.77,2.17-6.1,2.21-9.99l2.96,2.18h-21.18v-4.71h23.57v.77c0,5.44-.97,10.04-2.92,13.79-1.95,3.75-4.63,6.59-8.06,8.51-3.42,1.92-7.41,2.88-11.96,2.88Z"/>
      <path class="st1" d="M1077.93,215.11v-48.4h5.14v48.4h-5.14Z"/>
      <path class="st1" d="M1113.04,215.11v-48.4h5.14v48.4h-5.14ZM1116.41,171.41v-4.71h28.07v4.71h-28.07ZM1116.41,192.59v-4.57h26.24v4.57h-26.24ZM1116.41,215.11v-4.71h28.49v4.71h-28.49Z"/>
      <path class="st1" d="M1184.17,215.81c-3.75,0-6.99-.72-9.71-2.15-2.72-1.43-5.11-3.44-7.18-6.02l3.59-3.52c1.64,2.3,3.55,4.01,5.73,5.14,2.18,1.12,4.77,1.69,7.77,1.69s5.6-.7,7.53-2.11c1.92-1.41,2.89-3.35,2.89-5.84,0-1.92-.45-3.51-1.34-4.75-.89-1.24-2.05-2.25-3.48-3.03-1.43-.77-3.02-1.47-4.75-2.08-1.74-.61-3.46-1.26-5.17-1.94s-3.29-1.54-4.75-2.57c-1.45-1.03-2.61-2.35-3.48-3.94-.87-1.59-1.3-3.63-1.3-6.12,0-2.63.63-4.88,1.9-6.75,1.27-1.88,3-3.32,5.21-4.33,2.2-1.01,4.71-1.51,7.53-1.51,3.14,0,5.94.61,8.41,1.83,2.46,1.22,4.51,2.86,6.16,4.93l-3.52,3.52c-1.5-1.78-3.14-3.14-4.92-4.08-1.78-.94-3.87-1.41-6.26-1.41-2.81,0-5.07.66-6.75,1.97-1.69,1.31-2.53,3.14-2.53,5.49,0,1.83.43,3.31,1.3,4.43.87,1.12,2.03,2.06,3.48,2.81,1.45.75,3.04,1.42,4.75,2.01,1.71.59,3.44,1.23,5.17,1.94,1.73.7,3.32,1.59,4.75,2.67,1.43,1.08,2.59,2.45,3.48,4.12.89,1.66,1.34,3.79,1.34,6.37,0,4.17-1.42,7.42-4.26,9.75-2.84,2.32-6.7,3.48-11.57,3.48Z"/>
    </g>
  </g>
  <g>
    <path class="st0" d="M288.55,144.27c0-42.95-18.78-81.48-48.56-107.91h-13c-.88,2.49-3.23,4.28-6.03,4.28-3.54,0-6.42-2.87-6.42-6.42s2.87-6.42,6.42-6.42c2.79,0,5.14,1.79,6.03,4.28h7.97c1.71,1.38,3.38,2.81,5.02,4.26C214.51,13.75,181.01,0,144.27,0,64.59,0,0,64.59,0,144.27s64.59,144.27,144.27,144.27c37.75,0,72.1-14.52,97.81-38.25-.78.72-1.57,1.42-2.36,2.12h-27.63l-83.14-91.49-33.38,34.94c1.19,2.36.86,5.3-1.07,7.32-2.45,2.56-6.51,2.66-9.07.21-2.56-2.45-2.66-6.51-.21-9.07,1.93-2.02,4.85-2.48,7.26-1.4l36.54-38.25,84.96,93.48h20.48l-51.09-57.46c-2.45,1-5.35.43-7.21-1.66-2.35-2.65-2.12-6.71.53-9.06,2.65-2.36,6.71-2.12,9.06.53,1.86,2.09,2.08,5.04.8,7.35l55.53,62.45c28.56-26.36,46.46-64.09,46.46-106.02ZM88.18,248.15v-11.72c-2.49-.88-4.28-3.23-4.28-6.03,0-3.55,2.87-6.42,6.42-6.42s6.42,2.87,6.42,6.42c0,2.79-1.79,5.14-4.28,6.03v15.99h-24.92V50.38h24.92v44.88c2.49.88,4.28,3.24,4.28,6.03,0,3.54-2.87,6.42-6.42,6.42s-6.42-2.87-6.42-6.42c0-2.79,1.79-5.14,4.28-6.03v-40.61h-16.38v193.5h16.38ZM88.18,175.3v-36.96c-2.49-.88-4.28-3.24-4.28-6.03,0-3.54,2.87-6.42,6.42-6.42s6.42,2.87,6.42,6.42c0,2.79-1.79,5.14-4.28,6.03v26.37l100.83-104.72c-1.18-2.36-.84-5.3,1.09-7.31,2.46-2.55,6.52-2.63,9.08-.17s2.63,6.52.17,9.08c-1.94,2.01-4.86,2.46-7.27,1.37l-108.17,112.34ZM228.99,61.59c-1.92,2.03-4.84,2.5-7.25,1.43l-71.39,75.43c1.2,2.35.89,5.3-1.03,7.32-2.44,2.57-6.5,2.69-9.07.25-2.57-2.44-2.69-6.5-.25-9.07,1.92-2.03,4.84-2.5,7.25-1.43l71.39-75.43c-1.2-2.35-.89-5.3,1.03-7.32,2.44-2.57,6.5-2.69,9.07-.25,2.57,2.44,2.69,6.5.25,9.07Z"/>
    <polygon class="st0" points="239.99 36.36 239.98 36.36 239.99 36.36 239.99 36.36"/>
    <polygon class="st0" points="242.09 250.3 242.09 250.3 242.09 250.3 242.09 250.3"/>
    <path class="st1" d="M110.74,207.84l17.92-18.87,36.41,40.06c-1.25,2.33-.99,5.27.88,7.34,2.38,2.62,6.44,2.82,9.07.43,2.62-2.38,2.82-6.44.43-9.07-1.88-2.07-4.79-2.6-7.23-1.58l-39.5-43.46-22.26,23.43v61.47h-37.08c2.47,1.5,5.01,2.91,7.57,4.27h33.78v-64.04Z"/>
    <path class="st1" d="M53.51,40.53c2.49-.88,4.28-3.23,4.28-6.03,0-1.69-.66-3.21-1.73-4.35-3.37,2.61-6.63,5.36-9.76,8.25.75.96,1.76,1.71,2.93,2.13v212.25c1.4,1.23,2.82,2.44,4.27,3.62V40.53Z"/>
    <path class="st1" d="M165.45,143.01l86.49,97.27c.95-1.07,1.89-2.15,2.82-3.25l-83.52-93.92,84.94-89.86c-.9-1.11-1.84-2.19-2.78-3.28l-87.95,93.05Z"/>
    <path class="st1" d="M217.39,266.44c-.88-2.49-3.24-4.28-6.03-4.28-3.54,0-6.42,2.87-6.42,6.42,0,2.19,1.1,4.12,2.78,5.28,4.56-2.24,8.98-4.72,13.26-7.42h-3.59Z"/>
    <path class="st1" d="M74.25,40.64c2.79,0,5.14-1.79,6.03-4.28h26.19v93.57l85.75-88.92c2.4,1.09,5.33.65,7.27-1.36,2.46-2.55,2.39-6.62-.16-9.08-2.55-2.46-6.62-2.39-9.08.16-1.94,2.01-2.28,4.95-1.1,7.31l-78.41,81.31V32.09h-30.46c-.88-2.49-3.23-4.28-6.03-4.28-3.54,0-6.42,2.87-6.42,6.42s2.87,6.42,6.42,6.42Z"/>
  </g>
</svg>